<?xml version="1.0" standalone="no"?>
<!DOCTYPE svg PUBLIC "-//W3C//DTD SVG 20010904//EN"
 "http://www.w3.org/TR/2001/REC-SVG-20010904/DTD/svg10.dtd">
<svg version="1.0" xmlns="http://www.w3.org/2000/svg"
 width="283.000000pt" height="120.000000pt" viewBox="0 0 283.000000 120.000000"
 preserveAspectRatio="xMidYMid meet">

<g transform="translate(0.000000,120.000000) scale(0.100000,-0.100000)"
fill="#000000" stroke="none">
<path d="M1151 1073 c-21 -71 -57 -184 -78 -253 l-39 -125 -47 -3 c-36 -2 -47
0 -47 12 0 8 23 92 50 187 28 95 50 174 50 176 0 1 -42 3 -93 3 l-93 0 -157
-527 c-87 -291 -157 -532 -157 -536 0 -4 42 -6 92 -5 l93 3 80 262 79 263 48
0 c32 0 48 -4 48 -12 0 -10 -77 -279 -106 -370 -5 -16 4 -18 90 -18 81 0 95 2
100 18 3 9 71 238 151 507 80 270 150 502 155 518 l9 27 -94 0 -94 0 -40 -127z"/>
<path d="M1395 1058 c-13 -36 -265 -902 -265 -910 0 -5 80 -7 177 -6 l177 3
27 75 c15 41 28 78 28 83 1 4 -38 7 -85 7 l-86 0 6 28 c4 15 18 64 32 110 l25
82 83 0 83 0 18 63 c9 34 20 70 22 80 5 15 -3 17 -76 17 -44 0 -81 3 -81 8 0
4 13 50 29 102 l29 95 84 3 84 3 23 72 c13 40 26 78 28 85 4 9 -35 12 -176 12
-136 0 -183 -3 -186 -12z"/>
<path d="M1827 1063 c-5 -9 -307 -1048 -307 -1057 0 -3 42 -6 94 -6 l93 0 75
262 75 263 46 3 c34 2 47 -1 47 -10 0 -10 -76 -276 -106 -370 -5 -16 4 -18 89
-18 l95 0 20 68 c50 165 92 315 92 328 0 8 -9 23 -20 34 -14 14 -16 20 -6 20
37 0 57 37 106 205 65 221 64 251 -1 274 -36 12 -385 16 -392 4z m238 -153 c8
-12 -41 -186 -61 -217 -12 -18 -24 -23 -59 -23 -25 0 -45 2 -45 3 0 2 16 57
35 123 19 65 35 120 35 121 0 8 90 1 95 -7z"/>
<path d="M2421 1057 c-19 -6 -42 -23 -52 -37 -20 -27 -239 -759 -239 -798 0
-70 49 -92 204 -92 139 0 206 13 236 45 17 18 54 128 136 407 62 211 113 395
114 409 0 15 -9 37 -19 50 -19 23 -24 24 -183 26 -109 2 -174 -2 -197 -10z
m189 -153 c0 -18 -154 -555 -170 -591 -8 -19 -17 -23 -55 -23 -31 0 -45 4 -45
13 0 12 161 568 175 605 2 7 23 12 50 12 35 0 45 -4 45 -16z"/>
<path d="M310 808 c-24 -84 -45 -159 -48 -165 -3 -10 15 -13 69 -13 41 0 80 4
86 8 16 10 55 122 49 138 -3 7 4 29 15 51 10 21 22 60 25 86 l7 47 -80 0 -79
0 -44 -152z m130 88 c0 -28 -23 -76 -36 -76 -16 0 -18 28 -4 64 10 27 40 36
40 12z m-43 -153 c-7 -40 -29 -69 -45 -59 -16 10 16 96 35 96 12 0 14 -8 10
-37z"/>
<path d="M530 888 c-12 -40 -32 -109 -46 -154 -13 -44 -24 -85 -24 -92 0 -8
20 -12 60 -12 56 0 61 2 70 26 14 35 14 34 -20 34 -33 0 -35 3 -19 49 9 25 16
31 40 31 22 0 32 6 39 26 14 35 14 34 -21 34 -24 0 -30 3 -25 16 3 9 9 27 12
40 5 19 13 24 40 24 19 0 34 4 34 9 0 5 3 16 6 25 5 14 -4 16 -60 16 l-65 0
-21 -72z"/>
<path d="M46 554 c-11 -29 -6 -44 14 -44 11 0 20 -3 20 -7 0 -5 -18 -65 -39
-135 l-38 -128 33 0 c36 0 29 -16 88 190 20 68 24 75 49 78 15 2 27 6 27 10 0
4 3 17 6 30 6 21 4 22 -74 22 -64 0 -81 -3 -86 -16z"/>
<path d="M191 423 c-24 -82 -46 -156 -49 -166 -4 -16 0 -18 29 -15 33 3 35 6
53 71 15 51 24 67 38 67 22 0 22 -1 -1 -77 l-19 -63 33 0 c23 0 35 5 39 18 3
9 23 79 45 154 23 75 41 142 41 148 0 7 -13 10 -32 8 -29 -3 -33 -7 -47 -60
-17 -60 -33 -84 -49 -74 -6 4 -3 29 9 69 10 34 19 63 19 65 0 1 -15 2 -33 2
l-33 0 -43 -147z"/>
<path d="M411 503 c-11 -38 -33 -112 -49 -165 l-29 -98 62 0 c57 0 63 2 73 25
16 35 16 35 -18 35 -33 0 -35 3 -19 48 8 25 17 31 42 34 24 2 33 8 35 26 3 18
-1 22 -22 22 -27 0 -29 7 -17 50 5 19 15 26 41 30 26 4 35 11 41 33 l7 27 -63
0 -64 0 -20 -67z"/>
</g>
</svg>
